# xmcd
#
# Track frame offsets:
#	150
#	18898
#	49918
#	64304
#	88041
#	109557
#	124265
#	151711
#	167173
#	179422
#	192062
#	215961
#	240230
#	256126
#	266874
#	288808
#	302359
#	313713
#
# Disc length: 4390 seconds
# Revision: 0
# Processed by: cddbd v1.5.2PL0 Copyright (c) Steve Scherf et al.
# Submitted via: dBpowerAMP V12.0
#
DISCID=f4112412
DTITLE=Sonny Terry and Brownie McGhee - An Introduction to Sonny Terry and Brownie McGhee
DYEAR=2006
DGENRE=Blues
TTITLE0=I'm A Stranger Here
TTITLE1=Blues For Gamblers
TTITLE2=Walk On
TTITLE3=Early In The Morning Blues
TTITLE4=Blues For The Lowland
TTITLE5=Down By The Riverside
TTITLE6=Blowin' The Fuse
TTITLE7=Trouble In Mind
TTITLE8=Po' Boys
TTITLE9=Right On That Shore
TTITLE10=Drinkin' In the Blues
TTITLE11=Midnight Special
TTITLE12=I Was Born With The Blues
TTITLE13=What A Beautiful City
TTITLE14=Blues All Round My Bed
TTITLE15=It Takes A Worried Man
TTITLE16=Cornbread, Peas  and Black Molasses
TTITLE17=I'm a Poor Man But a Good Man
EXTD=
EXTT0=
EXTT1=
EXTT2=
EXTT3=
EXTT4=
EXTT5=
EXTT6=
EXTT7=
EXTT8=
EXTT9=
EXTT10=
EXTT11=
EXTT12=
EXTT13=
EXTT14=
EXTT15=
EXTT16=
EXTT17=
PLAYORDER=
